<?xml version="1.0" encoding="UTF-8"?>
<svg xmlns="http://www.w3.org/2000/svg" width="1400" height="900" viewBox="0 0 1400 900">
  <defs>
    <linearGradient id="bg" x1="0" x2="1" y1="0" y2="1"><stop offset="0" stop-color="#0f172a"/><stop offset="1" stop-color="#111827"/></linearGradient>
    <linearGradient id="blue" x1="0" x2="1"><stop offset="0" stop-color="#2563eb"/><stop offset="1" stop-color="#38bdf8"/></linearGradient>
    <linearGradient id="red" x1="0" x2="1"><stop offset="0" stop-color="#dc2626"/><stop offset="1" stop-color="#fb7185"/></linearGradient>
    <filter id="shadow" x="-20%" y="-20%" width="140%" height="140%"><feDropShadow dx="0" dy="10" stdDeviation="10" flood-color="#020617" flood-opacity="0.45"/></filter>
    <marker id="arrow" markerWidth="12" markerHeight="12" refX="10" refY="6" orient="auto"><path d="M2,2 L10,6 L2,10 Z" fill="#60a5fa"/></marker>
    <style>
      .title{font-family:Segoe UI,Arial,sans-serif;font-size:38px;font-weight:800;fill:#f9fafb}.sub{font-family:Segoe UI,Arial,sans-serif;font-size:18px;fill:#cbd5e1}.box{fill:#1f2937;stroke:#334155;stroke-width:2;rx:16;filter:url(#shadow)}.box2{fill:#111827;stroke:#3b82f6;stroke-width:2;rx:16;filter:url(#shadow)}.accent{fill:url(#blue)}.danger{fill:url(#red)}.h{font-family:Segoe UI,Arial,sans-serif;font-size:21px;font-weight:700;fill:#f8fafc}.p{font-family:Segoe UI,Arial,sans-serif;font-size:16px;fill:#dbeafe}.small{font-family:Segoe UI,Arial,sans-serif;font-size:14px;fill:#cbd5e1}.line{stroke:#60a5fa;stroke-width:3;fill:none;marker-end:url(#arrow)}.line2{stroke:#fb7185;stroke-width:3;fill:none;marker-end:url(#arrow);stroke-dasharray:8 7}.badge{fill:#0b1220;stroke:#475569;stroke-width:1;rx:12}.num{font-family:Segoe UI,Arial,sans-serif;font-size:17px;font-weight:800;fill:#fff}
    </style>
  </defs>
  <rect width="1400" height="900" fill="url(#bg)"/>
  <rect x="28" y="28" width="1344" height="844" rx="24" fill="none" stroke="#1e3a8a" stroke-width="2" opacity="0.8"/>
  <text x="60" y="78" class="title">Checkout szekvencia ábra</text>
  <text x="60" y="112" class="sub">A rendelés leadásának fő lépései vásárlói és admin oldalon</text>
  
<rect x="80" y="160" width="190" height="58" rx="14" class="box2"/><text x="105" y="196" class="h">Vásárló</text><line x1="175" y1="230" x2="175" y2="735" stroke="#334155" stroke-width="2" stroke-dasharray="8 8"/><rect x="330" y="160" width="190" height="58" rx="14" class="box2"/><text x="355" y="196" class="h">Angular checkout</text><line x1="425" y1="230" x2="425" y2="735" stroke="#334155" stroke-width="2" stroke-dasharray="8 8"/><rect x="580" y="160" width="190" height="58" rx="14" class="box2"/><text x="605" y="196" class="h">OrderService</text><line x1="675" y1="230" x2="675" y2="735" stroke="#334155" stroke-width="2" stroke-dasharray="8 8"/><rect x="830" y="160" width="190" height="58" rx="14" class="box2"/><text x="855" y="196" class="h">Firestore</text><line x1="925" y1="230" x2="925" y2="735" stroke="#334155" stroke-width="2" stroke-dasharray="8 8"/><rect x="1080" y="160" width="190" height="58" rx="14" class="box2"/><text x="1105" y="196" class="h">Admin rendeléslista</text><line x1="1175" y1="230" x2="1175" y2="735" stroke="#334155" stroke-width="2" stroke-dasharray="8 8"/>
<path d="M175,280 L425,280" class="line"/><text x="210" y="265" class="p">Kosár és adatok megadása</text>
<path d="M425,350 L675,350" class="line"/><text x="455" y="335" class="p">Mezővalidáció, kupon, összegzés</text>
<path d="M675,420 L925,420" class="line"/><text x="710" y="405" class="p">Rendelés mentése tranzakcióval</text>
<path d="M925,500 L1175,500" class="line"/><text x="965" y="485" class="p">Új rendelés megjelenik</text>
<path d="M1175,580 L925,580" class="line2"/><text x="950" y="565" class="p">Státusz módosítása</text>
<path d="M925,650 L675,650" class="line2"/><text x="710" y="635" class="p">Audit és készletváltozás</text>

</svg>